<?xml version="1.0" encoding="UTF-8" standalone="no"?>
<svg viewBox="0 -3 33 33" class="stroke-background-10" fill="none" stroke="white">
  <path d="M2.39804 3.04599V11.509H10.861" stroke-width="3" stroke-linecap="round" stroke-linejoin="round" />
  <path d="M5.93804 18.561C6.85464 21.1563 8.58994 23.3833 10.8824 24.9065C13.1749 26.4297 15.9003 27.1666 18.648 27.006C21.3957 26.8454 24.0168 25.7961 26.1163 24.0162C28.2157 22.2363 29.6798 19.8223 30.2878 17.1379C30.8959 14.4536 30.615 11.6443 29.4874 9.13344C28.3599 6.6226 26.4468 4.54626 24.0365 3.21732C21.6262 1.88837 18.8493 1.37883 16.1242 1.76548C13.3991 2.15213 10.8735 3.41402 8.92804 5.36099L2.39304 11.508" stroke-width="3" stroke-linecap="round" stroke-linejoin="round" />
  <path
    d="M16.633 9.33699C17.879 11.837 14.133 13.083 14.133 15.581C14.133 18.079 16.633 19.327 16.633 19.327C15.407 16.855 19.133 15.581 19.133 13.083C19.133 10.585 16.633 9.33699 16.633 9.33699ZM20.377 13.083C21.626 15.583 17.877 16.829 17.877 19.327H21.626C22.126 19.327 22.875 18.703 22.875 16.827C22.875 14.337 20.377 13.083 20.377 13.083Z"
    fill="white" />
</svg>
