<?xml version="1.0" encoding="UTF-8" standalone="no"?>
<!-- Uploaded to: SVG Repo, www.svgrepo.com, Generator: SVG Repo Mixer Tools -->

<svg
   fill="#000000"
   width="800px"
   height="800px"
   viewBox="-3 0 19 19"
   class="cf-icon-svg"
   version="1.1"
   id="svg1"
   sodipodi:docname="microphone-svgrepo-com.svg"
   inkscape:version="1.4.3 (0d15f75042, 2025-12-25)"
   xmlns:inkscape="http://www.inkscape.org/namespaces/inkscape"
   xmlns:sodipodi="http://sodipodi.sourceforge.net/DTD/sodipodi-0.dtd"
   xmlns="http://www.w3.org/2000/svg"
   xmlns:svg="http://www.w3.org/2000/svg">
  <defs
     id="defs1" />
  <sodipodi:namedview
     id="namedview1"
     pagecolor="#505050"
     bordercolor="#eeeeee"
     borderopacity="1"
     inkscape:showpageshadow="0"
     inkscape:pageopacity="0"
     inkscape:pagecheckerboard="0"
     inkscape:deskcolor="#505050"
     inkscape:zoom="0.575"
     inkscape:cx="399.13043"
     inkscape:cy="400"
     inkscape:window-width="1906"
     inkscape:window-height="1041"
     inkscape:window-x="0"
     inkscape:window-y="0"
     inkscape:window-maximized="1"
     inkscape:current-layer="svg1" />
  <path
     d="m 11.665,7.915 v 1.31 a 5.257,5.257 0 0 1 -1.514,3.694 5.174,5.174 0 0 1 -1.641,1.126 5.04,5.04 0 0 1 -1.456,0.384 v 1.899 h 2.312 a 0.554,0.554 0 0 1 0,1.108 H 3.634 a 0.554,0.554 0 0 1 0,-1.108 H 5.946 V 14.429 A 5.045,5.045 0 0 1 4.49,14.045 5.174,5.174 0 0 1 2.849,12.919 5.257,5.257 0 0 1 1.335,9.224 v -1.31 a 0.5545,0.5545 0 1 1 1.109,0 v 1.31 a 4.131,4.131 0 0 0 1.195,2.917 3.989,3.989 0 0 0 5.722,0 4.133,4.133 0 0 0 1.195,-2.917 v -1.31 a 0.5545,0.5545 0 1 1 1.109,0 z M 3.77,10.37 A 2.875,2.875 0 0 1 3.537,9.224 V 4.738 A 2.905,2.905 0 0 1 3.77,3.58 3,3 0 0 1 5.36,1.99 2.902,2.902 0 0 1 6.518,1.757 2.865,2.865 0 0 1 7.67,1.99 2.977,2.977 0 0 1 9.463,4.738 L 9.451,9.225 A 2.958,2.958 0 0 1 8.595,11.315 3.025,3.025 0 0 1 7.658,11.949 2.865,2.865 0 0 1 6.506,12.182 2.905,2.905 0 0 1 5.348,11.949 2.957,2.957 0 0 1 3.77,10.37 Z"
     id="path1"
     style="display:inline;mix-blend-mode:normal;fill:#ffffff;fill-opacity:1" />
</svg>
